<mxfile host="app.diagrams.net" modified="2022-04-05T19:58:32.486Z" agent="5.0 (Windows)" etag="yTDbFHMfQDVunTIonTvj" version="17.1.1" type="github">
  <diagram id="Z3UGZ530ziYzLiBbJEdt" name="Page-1">
    <mxGraphModel dx="1782" dy="1803" grid="1" gridSize="10" guides="1" tooltips="1" connect="1" arrows="1" fold="1" page="1" pageScale="1" pageWidth="850" pageHeight="1100" math="0" shadow="0">
      <root>
        <mxCell id="0" />
        <mxCell id="1" parent="0" />
        <mxCell id="Mtt0H75ktQKiFJMiycaz-18" style="edgeStyle=orthogonalEdgeStyle;rounded=0;orthogonalLoop=1;jettySize=auto;html=1;exitX=0.5;exitY=1;exitDx=0;exitDy=0;entryX=0.5;entryY=0;entryDx=0;entryDy=0;fontSize=16;" edge="1" parent="1" source="Mtt0H75ktQKiFJMiycaz-1" target="Mtt0H75ktQKiFJMiycaz-8">
          <mxGeometry relative="1" as="geometry">
            <Array as="points">
              <mxPoint x="130" y="250" />
              <mxPoint x="100" y="250" />
            </Array>
          </mxGeometry>
        </mxCell>
        <mxCell id="Mtt0H75ktQKiFJMiycaz-19" style="edgeStyle=orthogonalEdgeStyle;rounded=0;orthogonalLoop=1;jettySize=auto;html=1;exitX=0.75;exitY=1;exitDx=0;exitDy=0;entryX=0.5;entryY=0;entryDx=0;entryDy=0;fontSize=16;" edge="1" parent="1" source="Mtt0H75ktQKiFJMiycaz-1" target="Mtt0H75ktQKiFJMiycaz-16">
          <mxGeometry relative="1" as="geometry">
            <Array as="points">
              <mxPoint x="130" y="160" />
              <mxPoint x="130" y="250" />
              <mxPoint x="240" y="250" />
            </Array>
          </mxGeometry>
        </mxCell>
        <mxCell id="Mtt0H75ktQKiFJMiycaz-20" value="&lt;div&gt;spawns&lt;/div&gt;" style="edgeLabel;html=1;align=center;verticalAlign=middle;resizable=0;points=[];fontSize=16;" vertex="1" connectable="0" parent="Mtt0H75ktQKiFJMiycaz-19">
          <mxGeometry x="-0.1385" y="-2" relative="1" as="geometry">
            <mxPoint x="5" y="8" as="offset" />
          </mxGeometry>
        </mxCell>
        <mxCell id="Mtt0H75ktQKiFJMiycaz-1" value="Creature manager" style="whiteSpace=wrap;html=1;aspect=fixed;fontSize=16;" vertex="1" parent="1">
          <mxGeometry x="90" y="80" width="80" height="80" as="geometry" />
        </mxCell>
        <mxCell id="Mtt0H75ktQKiFJMiycaz-22" style="edgeStyle=orthogonalEdgeStyle;rounded=0;orthogonalLoop=1;jettySize=auto;html=1;exitX=0.5;exitY=1;exitDx=0;exitDy=0;entryX=0.5;entryY=0;entryDx=0;entryDy=0;fontSize=16;" edge="1" parent="1" source="Mtt0H75ktQKiFJMiycaz-2" target="Mtt0H75ktQKiFJMiycaz-7">
          <mxGeometry relative="1" as="geometry">
            <Array as="points">
              <mxPoint x="510" y="240" />
              <mxPoint x="465" y="240" />
            </Array>
          </mxGeometry>
        </mxCell>
        <mxCell id="Mtt0H75ktQKiFJMiycaz-2" value="Farmers" style="whiteSpace=wrap;html=1;aspect=fixed;fontSize=16;" vertex="1" parent="1">
          <mxGeometry x="470" y="80" width="80" height="80" as="geometry" />
        </mxCell>
        <mxCell id="Mtt0H75ktQKiFJMiycaz-23" style="edgeStyle=orthogonalEdgeStyle;rounded=0;orthogonalLoop=1;jettySize=auto;html=1;exitX=0.5;exitY=1;exitDx=0;exitDy=0;entryX=0.5;entryY=0;entryDx=0;entryDy=0;fontSize=16;" edge="1" parent="1" source="Mtt0H75ktQKiFJMiycaz-3" target="Mtt0H75ktQKiFJMiycaz-7">
          <mxGeometry relative="1" as="geometry">
            <Array as="points">
              <mxPoint x="650" y="240" />
              <mxPoint x="465" y="240" />
            </Array>
          </mxGeometry>
        </mxCell>
        <mxCell id="Mtt0H75ktQKiFJMiycaz-3" value="Farmers" style="whiteSpace=wrap;html=1;aspect=fixed;fontSize=16;" vertex="1" parent="1">
          <mxGeometry x="610" y="80" width="80" height="80" as="geometry" />
        </mxCell>
        <mxCell id="Mtt0H75ktQKiFJMiycaz-24" style="edgeStyle=orthogonalEdgeStyle;rounded=0;orthogonalLoop=1;jettySize=auto;html=1;entryX=0.5;entryY=0;entryDx=0;entryDy=0;fontSize=16;" edge="1" parent="1" source="Mtt0H75ktQKiFJMiycaz-4" target="Mtt0H75ktQKiFJMiycaz-7">
          <mxGeometry relative="1" as="geometry">
            <Array as="points">
              <mxPoint x="780" y="240" />
              <mxPoint x="465" y="240" />
            </Array>
          </mxGeometry>
        </mxCell>
        <mxCell id="Mtt0H75ktQKiFJMiycaz-25" value="&lt;div&gt;protect&lt;/div&gt;" style="edgeLabel;html=1;align=center;verticalAlign=middle;resizable=0;points=[];fontSize=16;" vertex="1" connectable="0" parent="Mtt0H75ktQKiFJMiycaz-24">
          <mxGeometry x="0.7702" y="-1" relative="1" as="geometry">
            <mxPoint as="offset" />
          </mxGeometry>
        </mxCell>
        <mxCell id="Mtt0H75ktQKiFJMiycaz-4" value="Farmers" style="whiteSpace=wrap;html=1;aspect=fixed;fontSize=16;" vertex="1" parent="1">
          <mxGeometry x="740" y="80" width="80" height="80" as="geometry" />
        </mxCell>
        <mxCell id="Mtt0H75ktQKiFJMiycaz-11" style="edgeStyle=orthogonalEdgeStyle;rounded=0;orthogonalLoop=1;jettySize=auto;html=1;entryX=0.5;entryY=0;entryDx=0;entryDy=0;" edge="1" parent="1" source="Mtt0H75ktQKiFJMiycaz-5" target="Mtt0H75ktQKiFJMiycaz-9">
          <mxGeometry relative="1" as="geometry" />
        </mxCell>
        <mxCell id="Mtt0H75ktQKiFJMiycaz-12" style="edgeStyle=orthogonalEdgeStyle;rounded=0;orthogonalLoop=1;jettySize=auto;html=1;exitX=0.5;exitY=1;exitDx=0;exitDy=0;entryX=0.5;entryY=0;entryDx=0;entryDy=0;" edge="1" parent="1" source="Mtt0H75ktQKiFJMiycaz-5" target="Mtt0H75ktQKiFJMiycaz-10">
          <mxGeometry relative="1" as="geometry" />
        </mxCell>
        <mxCell id="Mtt0H75ktQKiFJMiycaz-13" value="stores" style="edgeLabel;html=1;align=center;verticalAlign=middle;resizable=0;points=[];fontSize=16;" vertex="1" connectable="0" parent="Mtt0H75ktQKiFJMiycaz-12">
          <mxGeometry x="-0.1901" relative="1" as="geometry">
            <mxPoint x="-35" y="10" as="offset" />
          </mxGeometry>
        </mxCell>
        <mxCell id="Mtt0H75ktQKiFJMiycaz-14" style="edgeStyle=orthogonalEdgeStyle;rounded=0;orthogonalLoop=1;jettySize=auto;html=1;entryX=1;entryY=0.5;entryDx=0;entryDy=0;fontSize=16;" edge="1" parent="1" source="Mtt0H75ktQKiFJMiycaz-5" target="Mtt0H75ktQKiFJMiycaz-7">
          <mxGeometry relative="1" as="geometry" />
        </mxCell>
        <mxCell id="Mtt0H75ktQKiFJMiycaz-15" value="player carries" style="edgeLabel;html=1;align=center;verticalAlign=middle;resizable=0;points=[];fontSize=16;" vertex="1" connectable="0" parent="Mtt0H75ktQKiFJMiycaz-14">
          <mxGeometry x="0.2333" relative="1" as="geometry">
            <mxPoint x="14" y="-20" as="offset" />
          </mxGeometry>
        </mxCell>
        <mxCell id="Mtt0H75ktQKiFJMiycaz-5" value="Base Building&lt;br style=&quot;font-size: 16px;&quot;&gt;&lt;br style=&quot;font-size: 16px;&quot;&gt;Tools in it" style="ellipse;whiteSpace=wrap;html=1;fontSize=16;" vertex="1" parent="1">
          <mxGeometry x="660" y="320" width="120" height="80" as="geometry" />
        </mxCell>
        <mxCell id="Mtt0H75ktQKiFJMiycaz-36" style="edgeStyle=orthogonalEdgeStyle;rounded=0;orthogonalLoop=1;jettySize=auto;html=1;entryX=0.5;entryY=0;entryDx=0;entryDy=0;fontSize=18;" edge="1" parent="1" source="Mtt0H75ktQKiFJMiycaz-7" target="Mtt0H75ktQKiFJMiycaz-35">
          <mxGeometry relative="1" as="geometry" />
        </mxCell>
        <mxCell id="Mtt0H75ktQKiFJMiycaz-37" value="deliver harvest" style="edgeLabel;html=1;align=center;verticalAlign=middle;resizable=0;points=[];fontSize=18;" vertex="1" connectable="0" parent="Mtt0H75ktQKiFJMiycaz-36">
          <mxGeometry x="-0.0943" y="-4" relative="1" as="geometry">
            <mxPoint as="offset" />
          </mxGeometry>
        </mxCell>
        <mxCell id="Mtt0H75ktQKiFJMiycaz-7" value="Fields with crops&lt;br style=&quot;font-size: 16px;&quot;&gt;Need protection" style="ellipse;whiteSpace=wrap;html=1;fontSize=16;" vertex="1" parent="1">
          <mxGeometry x="390" y="315" width="150" height="90" as="geometry" />
        </mxCell>
        <mxCell id="Mtt0H75ktQKiFJMiycaz-8" value="Deer" style="ellipse;whiteSpace=wrap;html=1;fontSize=16;" vertex="1" parent="1">
          <mxGeometry x="40" y="320" width="120" height="80" as="geometry" />
        </mxCell>
        <mxCell id="Mtt0H75ktQKiFJMiycaz-9" value="Fence posts" style="ellipse;whiteSpace=wrap;html=1;fontSize=16;" vertex="1" parent="1">
          <mxGeometry x="560" y="500" width="120" height="80" as="geometry" />
        </mxCell>
        <mxCell id="Mtt0H75ktQKiFJMiycaz-10" value="Chems" style="ellipse;whiteSpace=wrap;html=1;fontSize=16;" vertex="1" parent="1">
          <mxGeometry x="770" y="500" width="120" height="80" as="geometry" />
        </mxCell>
        <mxCell id="Mtt0H75ktQKiFJMiycaz-21" style="edgeStyle=orthogonalEdgeStyle;rounded=0;orthogonalLoop=1;jettySize=auto;html=1;exitX=1;exitY=0.5;exitDx=0;exitDy=0;entryX=0;entryY=0.5;entryDx=0;entryDy=0;fontSize=16;" edge="1" parent="1" source="Mtt0H75ktQKiFJMiycaz-16" target="Mtt0H75ktQKiFJMiycaz-7">
          <mxGeometry relative="1" as="geometry" />
        </mxCell>
        <mxCell id="Mtt0H75ktQKiFJMiycaz-16" value="Snails" style="ellipse;whiteSpace=wrap;html=1;fontSize=16;" vertex="1" parent="1">
          <mxGeometry x="180" y="320" width="120" height="80" as="geometry" />
        </mxCell>
        <mxCell id="Mtt0H75ktQKiFJMiycaz-30" value="" style="swimlane;startSize=0;fontSize=16;" vertex="1" parent="1">
          <mxGeometry x="50" y="30" width="790" height="180" as="geometry" />
        </mxCell>
        <mxCell id="Mtt0H75ktQKiFJMiycaz-31" value="Game Client &amp;amp; Server" style="text;html=1;strokeColor=none;fillColor=none;align=center;verticalAlign=middle;whiteSpace=wrap;rounded=0;fontSize=16;" vertex="1" parent="Mtt0H75ktQKiFJMiycaz-30">
          <mxGeometry x="10" width="200" height="30" as="geometry" />
        </mxCell>
        <mxCell id="Mtt0H75ktQKiFJMiycaz-33" value="" style="rounded=1;whiteSpace=wrap;html=1;fontSize=16;" vertex="1" parent="1">
          <mxGeometry x="-50" y="450" width="400" height="360" as="geometry" />
        </mxCell>
        <mxCell id="Mtt0H75ktQKiFJMiycaz-34" value="* Game starts with fields with 100% of crops already planted&lt;br&gt;* CM can spawn animals to destroy plants&lt;br&gt;* If 80% of crops have been destroyed before a timer reaches 0 CM wins; farmers otherwise&lt;br&gt;&lt;br&gt;* CM can have sub goals to unlock improvments for its animals&lt;br&gt;* Farmers can unlock tool improvemnts by delivering certian crops to supermarket" style="text;html=1;strokeColor=none;fillColor=none;align=left;verticalAlign=top;whiteSpace=wrap;rounded=0;fontSize=18;" vertex="1" parent="1">
          <mxGeometry x="-40" y="470" width="380" height="210" as="geometry" />
        </mxCell>
        <mxCell id="Mtt0H75ktQKiFJMiycaz-35" value="Supermarket" style="ellipse;whiteSpace=wrap;html=1;fontSize=18;" vertex="1" parent="1">
          <mxGeometry x="405" y="670" width="120" height="80" as="geometry" />
        </mxCell>
        <mxCell id="Mtt0H75ktQKiFJMiycaz-42" value="" style="swimlane;startSize=0;fontSize=18;" vertex="1" parent="1">
          <mxGeometry x="225" y="-240" width="200" height="200" as="geometry" />
        </mxCell>
        <mxCell id="Mtt0H75ktQKiFJMiycaz-43" value="Centeral server" style="text;html=1;strokeColor=none;fillColor=none;align=center;verticalAlign=middle;whiteSpace=wrap;rounded=0;fontSize=18;" vertex="1" parent="Mtt0H75ktQKiFJMiycaz-42">
          <mxGeometry x="70" y="70" width="60" height="30" as="geometry" />
        </mxCell>
      </root>
    </mxGraphModel>
  </diagram>
</mxfile>
